<?xml version="1.0" encoding="utf-8"?>
<!-- Generator: Adobe Illustrator 19.2.1, SVG Export Plug-In . SVG Version: 6.00 Build 0)  -->
<svg version="1.1" id="Layer_1" xmlns="http://www.w3.org/2000/svg" xmlns:xlink="http://www.w3.org/1999/xlink" x="0px" y="0px"
	 viewBox="0 0 24 24" style="enable-background:new 0 0 24 24;" xml:space="preserve">
<style type="text/css">
	.st0{fill:#FFFFFF;}
</style>
<g>
	<path class="st0" d="M12,10.6c-0.8,0-1.4,0.6-1.4,1.4c0,0.8,0.6,1.4,1.4,1.4c0.8,0,1.4-0.6,1.4-1.4C13.4,11.2,12.8,10.6,12,10.6
		 M12,14.8c-1.6,0-2.8-1.3-2.8-2.8c0-1.6,1.3-2.8,2.8-2.8c1.6,0,2.8,1.3,2.8,2.8C14.8,13.6,13.6,14.8,12,14.8 M12,8
		c-2.7,0-4.9,1.7-5.9,4c0.9,2.3,3.2,4,5.9,4s4.9-1.7,5.9-4C16.9,9.7,14.7,8,12,8"/>
	<g>
		<polygon class="st0" points="4,9.2 2,9.2 2,2 9.2,2 9.2,4 4,4 		"/>
	</g>
	<g>
		<polygon class="st0" points="22,9.2 20,9.2 20,4 14.8,4 14.8,2 22,2 		"/>
	</g>
	<g>
		<polygon class="st0" points="9.2,22 2,22 2,14.8 4,14.8 4,20 9.2,20 		"/>
	</g>
	<g>
		<polygon class="st0" points="22,22 14.8,22 14.8,20 20,20 20,14.8 22,14.8 		"/>
	</g>
</g>
</svg>
