<?xml version="1.0" encoding="utf-8"?>
<!-- Generator: Adobe Illustrator 19.2.1, SVG Export Plug-In . SVG Version: 6.00 Build 0)  -->
<svg version="1.1" id="Layer_1" xmlns="http://www.w3.org/2000/svg" xmlns:xlink="http://www.w3.org/1999/xlink" x="0px" y="0px"
	 viewBox="0 0 24 24" style="enable-background:new 0 0 24 24;" xml:space="preserve">
<style type="text/css">
	.st0{opacity:0.3;}
	.st1{fill:#FFFFFF;}
	.st2{opacity:0.3;fill:#FFFFFF;}
</style>
<g class="st0">
	<path class="st1" d="M2.1,11.6v8h1.5l0-1.5c0-2.8,2.2-5,5-5s5,2.2,5,5v1.5h8.5v-8H2.1z"/>
	<circle class="st1" cx="8.6" cy="18.1" r="3"/>
</g>
<g>
	<rect x="4" y="3.6" class="st1" width="2" height="2"/>
	<rect x="11.1" y="3.6" class="st2" width="2" height="2"/>
	<rect x="18" y="3.6" class="st2" width="2" height="2"/>
	<g>
		<path class="st1" d="M2.1,11.6v8h1.5l0-1.5c0-2.8,2.2-5,5-5s5,2.2,5,5v1.5h8.5v-8H2.1z"/>
		<circle class="st1" cx="8.6" cy="18.1" r="3"/>
	</g>
</g>
</svg>
