<?xml version="1.0" encoding="utf-8"?>
<!-- Generator: Adobe Illustrator 19.2.1, SVG Export Plug-In . SVG Version: 6.00 Build 0)  -->
<svg version="1.1" id="Layer_1" xmlns="http://www.w3.org/2000/svg" xmlns:xlink="http://www.w3.org/1999/xlink" x="0px" y="0px"
	 viewBox="0 0 24 24" style="enable-background:new 0 0 24 24;" xml:space="preserve">
<style type="text/css">
	.st0{fill:#FFFFFF;}
</style>
<g>
	<g>
		<path class="st0" d="M16.9,9.2c0.2-0.2,0.2-0.6,0-0.8l-1.3-1.3C15.4,7,15,7,14.8,7.2l-1,1l2.1,2.1L16.9,9.2z M7,14.9V17h2.1l6-6
			l-2.1-2.1L7,14.9z"/>
	</g>
</g>
<g>
	<polygon class="st0" points="4,9.2 2,9.2 2,2 9.2,2 9.2,4 4,4 	"/>
</g>
<g>
	<polygon class="st0" points="22,9.2 20,9.2 20,4 14.8,4 14.8,2 22,2 	"/>
</g>
<g>
	<polygon class="st0" points="9.2,22 2,22 2,14.8 4,14.8 4,20 9.2,20 	"/>
</g>
<g>
	<polygon class="st0" points="22,22 14.8,22 14.8,20 20,20 20,14.8 22,14.8 	"/>
</g>
</svg>
