<?xml version="1.0" encoding="utf-8"?>
<!-- Generator: Adobe Illustrator 19.2.1, SVG Export Plug-In . SVG Version: 6.00 Build 0)  -->
<svg version="1.1" id="Layer_1" xmlns="http://www.w3.org/2000/svg" xmlns:xlink="http://www.w3.org/1999/xlink" x="0px" y="0px"
	 viewBox="0 0 24 24" style="enable-background:new 0 0 24 24;" xml:space="preserve">
<style type="text/css">
	.st0{fill:#FFFFFF;}
</style>
<path class="st0" d="M12,2C6.5,2,2,6.5,2,12s4.5,10,10,10s10-4.5,10-10S17.5,2,12,2z M16.2,15.4l-6.8,4c-0.1,0-0.2,0-0.2-0.1v-7.9
	c0-0.1,0.1-0.2,0.2-0.1l6.8,4C16.3,15.2,16.3,15.3,16.2,15.4z M15.8,9.3c-0.2,0-0.5,0-0.7-0.2L14,10c0,0.1,0,0.2,0,0.2
	c0,0.8-0.6,1.4-1.4,1.4c-0.8,0-1.4-0.6-1.4-1.4c0,0,0-0.1,0-0.1L9,8.8C8.8,8.9,8.5,9,8.2,9C7.4,9,6.8,8.4,6.8,7.6s0.6-1.4,1.4-1.4
	s1.4,0.6,1.4,1.4c0,0,0,0.1,0,0.1l2.4,1.4c0.2-0.2,0.5-0.2,0.8-0.2c0.2,0,0.5,0,0.7,0.2l1.1-0.8c0-0.1,0-0.2,0-0.2
	c0-0.8,0.6-1.4,1.4-1.4s1.4,0.6,1.4,1.4S16.6,9.3,15.8,9.3z"/>
</svg>
