<?xml version="1.0" encoding="utf-8"?>
<!-- Generator: Adobe Illustrator 19.2.1, SVG Export Plug-In . SVG Version: 6.00 Build 0)  -->
<svg version="1.1" id="Layer_1" xmlns="http://www.w3.org/2000/svg" xmlns:xlink="http://www.w3.org/1999/xlink" x="0px" y="0px"
	 viewBox="0 0 24 24" style="enable-background:new 0 0 24 24;" xml:space="preserve">
<style type="text/css">
	.st0{fill:#FFFFFF;}
</style>
<path class="st0" d="M12,2C6.5,2,2,6.5,2,12c0,5.5,4.5,10,10,10c5.5,0,10-4.5,10-10C22,6.5,17.5,2,12,2z M12,18h-2v2H8v-2H6v-2h2v-2
	h2v2h2V18z M12.3,14.9l-0.9-1.8c0,0,1-0.4,1.8-0.9l1.1,1.7C13.2,14.6,12.4,14.9,12.3,14.9z M16.1,12.6l-1.4-1.5
	c0.5-0.4,0.8-0.9,1.2-1.3l1.6,1.1C17.1,11.5,16.6,12.1,16.1,12.6z M18.5,8.9l-1.9-0.7C16.8,7.7,17,7,17,6.4l2,0.5
	C18.9,7.7,18.8,8.2,18.5,8.9z"/>
</svg>
