<?xml version="1.0" encoding="utf-8"?>
<!-- Generator: Adobe Illustrator 19.2.1, SVG Export Plug-In . SVG Version: 6.00 Build 0)  -->
<svg version="1.1" id="Layer_1" xmlns="http://www.w3.org/2000/svg" xmlns:xlink="http://www.w3.org/1999/xlink" x="0px" y="0px"
	 viewBox="0 0 24 24" style="enable-background:new 0 0 24 24;" xml:space="preserve">
<style type="text/css">
	.st0{fill:#FFFFFF;}
</style>
<path class="st0" d="M12,2C6.5,2,2,6.5,2,12s4.5,10,10,10s10-4.5,10-10S17.5,2,12,2z M12.7,18l-2.8-0.8L9,20l-1.4-0.4l0.8-2.8
	l-2.8-0.8L6,14.5l2.8,0.8l0.8-2.8l1.4,0.4l-0.8,2.8l2.8,0.8L12.7,18z M13.7,14.8l-1.2-0.9c0,0,0.5-0.5,1-1.2l1.2,0.9
	C14.1,14.4,13.7,14.8,13.7,14.8z M15.6,12.3l-1.2-0.8c0.2-0.4,0.5-0.8,0.7-1.2l1.3,0.7C16.1,11.5,15.8,11.9,15.6,12.3z M17.1,9.7
	L15.8,9c0.2-0.4,0.4-0.9,0.6-1.3l1.4,0.6C17.5,8.7,17.3,9.2,17.1,9.7z M18.3,6.8l-1.4-0.5c0.2-0.5,0.3-0.9,0.4-1.4l1.4,0.5
	C18.6,6,18.5,6.3,18.3,6.8z"/>
</svg>
